<?xml version="1.0" encoding="UTF-8"?>
<svg id="Capa_2" data-name="Capa 2" xmlns="http://www.w3.org/2000/svg" viewBox="0 0 1081.72 213.27">
  <defs>
    <style>
      .cls-1 {
        fill: #d32;
        stroke-width: 0px;
      }
    </style>
  </defs>
  <g id="Capa_1-2" data-name="Capa 1">
    <g>
      <polygon class="cls-1" points="632.5 97.14 655.48 97.14 655.48 21.21 680.48 21.21 680.48 2.8 607.5 2.8 607.5 21.21 632.5 21.21 632.5 97.14"/>
      <path class="cls-1" d="m744.31,59.78c6.9-2.06,12.12-5.55,15.66-10.48,3.54-4.93,5.31-10.53,5.31-16.8,0-5.55-1.3-10.59-3.9-15.12-2.6-4.52-6.52-8.08-11.76-10.68-5.24-2.6-11.58-3.9-19.02-3.9h-38.57v94.34h22.98v-35.61h5.51l19.62,35.61h25.94l-21.77-37.36Zm-5.58-17.6c-2.11,2.06-5.26,3.09-9.47,3.09h-14.25v-23.38h14.25c4.21,0,7.37,1.03,9.47,3.09,2.1,2.06,3.16,4.88,3.16,8.47,0,3.76-1.05,6.68-3.16,8.74Z"/>
      <path class="cls-1" d="m866.06,74.63c4.3-7.39,6.45-15.7,6.45-24.93s-2.13-17.51-6.38-24.86c-4.26-7.35-10.08-13.08-17.47-17.2-7.39-4.12-15.52-6.18-24.39-6.18s-17,2.06-24.39,6.18c-7.39,4.12-13.26,9.86-17.6,17.2-4.35,7.35-6.52,15.63-6.52,24.86s2.17,17.54,6.52,24.93c4.34,7.39,10.21,13.15,17.6,17.27,7.39,4.12,15.52,6.18,24.39,6.18s16.98-2.06,24.32-6.18c7.34-4.12,13.17-9.88,17.47-17.27Zm-41.79,2.49c-7.62,0-13.69-2.49-18.21-7.46-4.52-4.97-6.79-11.62-6.79-19.96s2.26-15.1,6.79-20.02c4.52-4.93,10.59-7.39,18.21-7.39s13.55,2.49,18.08,7.46c4.52,4.97,6.79,11.62,6.79,19.96s-2.26,14.87-6.79,19.89c-4.53,5.02-10.55,7.53-18.08,7.53Z"/>
      <path class="cls-1" d="m904.29,91.7c7.21,4.08,15.39,6.11,24.53,6.11,11.2,0,20.78-2.93,28.76-8.8,7.97-5.87,13.3-13.91,15.99-24.12h-25.26c-1.88,3.94-4.55,6.94-8,9-3.45,2.06-7.37,3.09-11.76,3.09-7.08,0-12.81-2.46-17.2-7.39-4.39-4.93-6.58-11.51-6.58-19.75s2.19-14.83,6.58-19.75c4.39-4.93,10.12-7.39,17.2-7.39,4.39,0,8.31,1.03,11.76,3.09,3.45,2.06,6.11,5.06,8,9h25.26c-2.69-10.21-8.02-18.28-15.99-24.19-7.98-5.91-17.56-8.87-28.76-8.87-9.14,0-17.31,2.04-24.53,6.11-7.21,4.08-12.83,9.77-16.87,17.07-4.03,7.3-6.05,15.61-6.05,24.93s2.02,17.6,6.05,24.86c4.03,7.26,9.65,12.92,16.87,17Z"/>
      <path class="cls-1" d="m1007.9,91.9c7.39,4.12,15.52,6.18,24.39,6.18s16.98-2.06,24.32-6.18c7.34-4.12,13.17-9.88,17.47-17.27s6.45-15.7,6.45-24.93-2.13-17.51-6.38-24.86c-4.26-7.35-10.08-13.08-17.47-17.2-7.39-4.12-15.52-6.18-24.39-6.18s-17,2.06-24.39,6.18c-7.39,4.12-13.26,9.86-17.6,17.2-4.35,7.35-6.52,15.63-6.52,24.86s2.17,17.54,6.52,24.93c4.34,7.39,10.21,13.15,17.6,17.27Zm6.18-62.22c4.52-4.93,10.59-7.39,18.21-7.39s13.55,2.49,18.08,7.46c4.52,4.97,6.79,11.62,6.79,19.96s-2.26,14.87-6.79,19.89c-4.53,5.02-10.55,7.53-18.08,7.53s-13.69-2.49-18.21-7.46c-4.52-4.97-6.79-11.62-6.79-19.96s2.26-15.1,6.79-20.02Z"/>
      <polygon class="cls-1" points="668.69 204.39 633.22 124.77 626.19 124.77 665.36 212.64 671.76 212.64 710.92 124.77 704.27 124.77 668.69 204.39"/>
      <rect class="cls-1" x="725.11" y="124.77" width="6.4" height="87.87"/>
      <path class="cls-1" d="m805.94,172.22c-3.26-1.67-6.82-3.03-10.67-4.08-3.85-1.05-7.74-2.03-11.67-2.95-3.93-.92-7.53-2.05-10.8-3.39-3.26-1.34-5.88-3.14-7.85-5.4-1.97-2.26-2.95-5.27-2.95-9.04,0-3.26.88-6.21,2.64-8.85s4.48-4.75,8.16-6.34c3.68-1.59,8.33-2.39,13.93-2.39,3.93,0,8.01.61,12.24,1.82,4.22,1.21,8.18,3.08,11.86,5.59l2.39-5.15c-3.35-2.43-7.39-4.35-12.11-5.77-4.73-1.42-9.52-2.13-14.37-2.13-7.2,0-13.1,1.09-17.7,3.26-4.6,2.18-7.99,5.02-10.17,8.54-2.18,3.51-3.26,7.36-3.26,11.55,0,4.6.98,8.35,2.95,11.23,1.97,2.89,4.58,5.17,7.85,6.84,3.26,1.67,6.86,3.03,10.8,4.08,3.93,1.05,7.82,2.03,11.67,2.95,3.85.92,7.41,2.05,10.67,3.39,3.26,1.34,5.9,3.14,7.91,5.4,2.01,2.26,3.01,5.27,3.01,9.04,0,3.18-.9,6.07-2.7,8.66-1.8,2.59-4.56,4.67-8.28,6.21-3.72,1.55-8.52,2.32-14.37,2.32s-11.4-1.07-16.63-3.2c-5.23-2.13-9.35-4.75-12.36-7.85l-2.89,4.77c3.18,3.51,7.68,6.38,13.49,8.6,5.82,2.22,11.99,3.33,18.52,3.33,7.28,0,13.24-1.07,17.89-3.2s8.1-4.98,10.36-8.54c2.26-3.56,3.39-7.38,3.39-11.49,0-4.52-1-8.2-3.01-11.05-2.01-2.84-4.64-5.1-7.91-6.78Z"/>
      <path class="cls-1" d="m901.85,175.11c0,10.96-2.51,19.08-7.53,24.35s-12.09,7.91-21.21,7.91-16.32-2.64-21.34-7.91c-5.02-5.27-7.53-13.39-7.53-24.35v-50.34h-6.4v50.59c0,12.55,3.14,22.01,9.41,28.37,6.28,6.36,14.85,9.54,25.73,9.54s19.58-3.18,25.86-9.54c6.28-6.36,9.41-15.82,9.41-28.37v-50.59h-6.4v50.34Z"/>
      <path class="cls-1" d="m961.97,124.77l-40.42,87.87h6.9l11.22-24.73h50.96l11.25,24.73h6.9l-40.42-87.87h-6.4Zm-19.85,57.74l22.99-50.69,23.07,50.69h-46.06Z"/>
      <polygon class="cls-1" points="1031.13 206.87 1031.13 124.77 1024.73 124.77 1024.73 212.64 1081.72 212.64 1081.72 206.87 1031.13 206.87"/>
      <path class="cls-1" d="m504.3,69.71l-60.35-53.67c-11.55-10.27-27.22-16.05-43.56-16.05H137.25c-16.34,0-32.01,5.77-43.56,16.05l-58.29,51.84v1.83h122.25L0,209.91h89.91c13.41,0,26.27-4.74,35.76-13.17l131.29-116.76c7.48-6.65,19.72-6.65,27.21,0l131.29,116.76c9.48,8.43,22.35,13.17,35.76,13.17h89.91l-157.65-140.2h120.82Z"/>
    </g>
  </g>
</svg>